<?xml version="1.0" encoding="utf-8"?>
<!-- Generator: Adobe Illustrator 21.0.2, SVG Export Plug-In . SVG Version: 6.00 Build 0)  -->
<svg version="1.1" baseProfile="tiny" id="Layer_1" xmlns="http://www.w3.org/2000/svg" xmlns:xlink="http://www.w3.org/1999/xlink"
	 x="0px" y="0px" viewBox="0 0 316.334 126.334" overflow="scroll" xml:space="preserve">
<path fill="#FFFFFF" d="M35.53,49.85c-2.941,0-3.781,0.421-3.781,2.732V71.38c0,0.947,0.314,6.826,1.259,7.878
	c1.156,1.26,4.516,1.995,7.878,1.995c7.98,0,13.862-5.462,13.862-14.598C54.748,57.202,46.977,49.85,35.53,49.85 M38.994,20.55
	c-6.931,0-7.245,0.945-7.245,3.045v22.791c0,1.68,1.364,1.47,3.885,1.47c6.406,0,10.817,0.63,10.817,0.63
	c3.045-2.31,6.512-4.306,6.512-12.602C52.963,30.633,48.552,20.55,38.994,20.55 M40.36,83.143c-4.411,0-8.822-1.05-13.443-1.05
	c-4.411,0-6.721,0.42-10.081,0.42c-1.051,0-1.786-0.105-1.786-1.154c0-1.052,0.63-1.262,2.94-1.262c4.726,0,4.937-0.209,4.937-1.783
	V30.002c0-8.296-1.682-9.241-4.621-9.241c-4.727,0-5.146-0.106-5.146-1.366c0-0.735,0.314-0.84,2.099-0.84
	c3.257,0,6.512,0.105,10.188,0.105c2.205,0,7.247-0.63,16.698-0.63c13.654,0,19.535,7.036,19.535,14.492
	c0,7.457-4.516,11.133-7.877,13.443c-1.996,1.366-4.307,2.521-4.307,2.836c0,0.21,1.996,0.735,4.097,1.785
	c4.935,2.521,11.133,6.092,11.133,15.229C64.726,77.577,54.958,83.143,40.36,83.143"/>
<path fill="#FFFFFF" d="M84.138,46.103c-6.942,0-9.135,10.412-9.135,11.692c0,0.457,0,0.548,1.097,0.548
	c4.75,0,9.682-1.189,16.533-2.285c1.005-0.182,1.097-0.365,1.097-0.913C93.73,52.862,88.341,46.103,84.138,46.103 M98.205,57.063
	c-2.375,0.549-11.51,2.559-21.922,3.198c-1.463,0.092-1.737,0.548-1.737,2.649c0,12.606,9.774,15.985,16.718,15.985
	c6.028,0,9.317-2.192,9.865-2.192c0.457,0,0.731,0.548,0.731,0.731c0,0.455-7.765,6.211-15.165,6.211
	c-7.489,0-18.634-3.654-18.634-18.908c0-12.88,8.679-20.554,16.99-20.554c4.751,0,10.597,3.016,13.885,6.852
	c1.554,1.827,3.015,4.019,3.015,4.749C101.951,56.15,100.673,56.515,98.205,57.063"/>
<path fill="#FFFFFF" d="M131.638,54.597c-1.279,0-2.375-3.745-6.943-3.745c-5.297,0-7.307,2.192-7.307,6.028v18.818
	c0,4.476,0.274,4.476,7.033,4.476c2.375,0,2.466,0.274,2.466,1.097c0,1.006-0.091,0.914-2.466,0.914
	c-1.279,0-7.398-0.457-10.322-0.457c-3.106,0-6.211,0.457-7.49,0.457c-2.102,0-2.285,0-2.285-0.914s0.092-1.097,2.285-1.097
	c3.745,0,4.019-0.091,4.019-1.37V53.775c0-6.211,0.182-6.393-4.932-6.393c-1.646,0-1.646,0.091-1.646-0.914
	c0-1.097-0.091-1.371,1.463-1.371c3.105,0,4.841,0.182,6.668,0.182c1.461,0,3.196-0.456,4.659-0.456
	c0.366,0,0.731,0.274,0.731,1.006c0,0.457-0.183,2.466-0.183,2.74c0,0.822,0.091,1.461,0.457,1.461c1.37,0,5.663-4.751,9.955-4.751
	c1.646,0,5.847,2.011,5.847,4.386C133.647,50.578,132.186,54.597,131.638,54.597"/>
<path fill="#FFFFFF" d="M174.845,82.55c-1.096,0-2.282-0.091-3.105-0.091c-1.096,0-3.837,0.091-5.114,0.091
	c-1.646,0-2.469-2.285-6.305-6.669c-3.836-4.384-7.675-10.14-8.223-10.14c-0.365,0-1.644,0.914-3.197,1.918
	c-1.461,0.914-2.74,1.555-2.74,2.377v5.754c0,4.292-0.183,4.292,5.48,4.292c2.101,0,2.466,0.457,2.466,1.188
	c0,0.914-0.456,0.914-2.466,0.914c-1.37,0-5.571-0.183-8.494-0.183c-3.107,0-6.486,0.183-7.765,0.183
	c-2.101,0-2.649-0.092-2.649-0.914c0-0.731,0.457-1.188,2.649-1.188c3.105,0,3.928,0,3.928-1.37c0-2.648,0.274-29.687,0.274-48.961
	c0-6.485-0.731-7.307-3.197-7.307c-3.745,0-4.11-0.274-4.11-0.915c0-0.913,0.182-1.279,1.187-1.279
	c6.576,0,11.966-2.009,12.788-2.009c0.457,0,0.64,0.274,0.64,0.822c0,1.187-0.183,5.025-0.183,7.948
	c0,13.884-0.548,24.115-0.548,39.004c0,0.366,0.091,0.641,0.366,0.641c2.283,0,11.785-8.403,14.708-11.145
	c3.563-3.379,4.384-4.932,4.384-6.85c0-1.461-0.274-1.644-4.293-1.644c-1.37,0-1.827-0.183-1.827-1.005
	c0-0.732,0.457-0.915,1.645-0.915c0.912,0,2.648,0.274,3.744,0.274c1.188,0,6.486-0.274,7.582-0.274
	c0.731,0,1.097,0.092,1.097,0.366c0,0.823-3.104,4.751-5.936,7.491c-4.568,4.477-10.232,8.495-10.232,9.135
	c0,0.822,1.644,2.558,8.038,10.231c3.107,3.744,6.029,8.22,9.135,8.22c2.191,0,2.923,0.458,2.923,1.188
	C177.495,82.366,176.855,82.55,174.845,82.55"/>
<path fill="#FFFFFF" d="M190.65,46.103c-6.941,0-9.133,10.412-9.133,11.692c0,0.457,0,0.548,1.096,0.548
	c4.748,0,9.681-1.189,16.533-2.285c1.004-0.182,1.096-0.365,1.096-0.913C200.242,52.862,194.853,46.103,190.65,46.103
	 M204.718,57.063c-2.376,0.549-11.51,2.559-21.923,3.198c-1.462,0.092-1.735,0.548-1.735,2.649c0,12.606,9.772,15.985,16.715,15.985
	c6.028,0,9.318-2.192,9.867-2.192c0.455,0,0.73,0.548,0.73,0.731c0,0.455-7.765,6.211-15.163,6.211
	c-7.491,0-18.635-3.654-18.635-18.908c0-12.88,8.678-20.554,16.99-20.554c4.75,0,10.596,3.016,13.886,6.852
	c1.552,1.827,3.014,4.019,3.014,4.749C208.463,56.15,207.185,56.515,204.718,57.063"/>
<path fill="#FFFFFF" d="M224.832,82.185c-1.371,0-3.379-0.184-5.025-0.184c-3.105,0-7.946,0.184-9.225,0.184
	c-2.102,0-2.285-0.184-2.285-0.913c0-0.64,0.092-1.188,2.285-1.188c3.745,0,5.298,0.091,5.298-1.553V28.198
	c0-5.754-0.548-5.754-4.657-5.754c-1.645,0-2.56-0.182-2.56-1.189c0-1.096,0.731-1.004,2.285-1.096
	c7.124-0.456,10.595-2.009,11.144-2.009c0.457,0,0.912,0.457,0.912,1.461c0,1.096-0.455,4.386-0.455,7.126
	c0,34.803-0.457,42.019-0.457,44.669c0,7.581,0.639,8.586,2.283,8.586c4.566,0,4.385,0.547,4.385,1.28
	C228.76,82.185,228.119,82.185,224.832,82.185"/>
<path fill="#FFFFFF" d="M243.338,46.103c-6.941,0-9.135,10.412-9.135,11.692c0,0.457,0,0.548,1.096,0.548
	c4.752,0,9.684-1.189,16.535-2.285c1.004-0.182,1.098-0.365,1.098-0.913C252.932,52.862,247.539,46.103,243.338,46.103
	 M257.406,57.063c-2.375,0.549-11.51,2.559-21.924,3.198c-1.461,0.092-1.736,0.548-1.736,2.649c0,12.606,9.775,15.985,16.717,15.985
	c6.029,0,9.318-2.192,9.865-2.192c0.457,0,0.73,0.548,0.73,0.731c0,0.455-7.764,6.211-15.162,6.211
	c-7.492,0-18.637-3.654-18.637-18.908c0-12.88,8.68-20.554,16.992-20.554c4.75,0,10.598,3.016,13.885,6.852
	c1.553,1.827,3.014,4.019,3.014,4.749C261.15,56.15,259.871,56.515,257.406,57.063"/>
<path fill="#FFFFFF" d="M298.785,47.29c-2.01,0-6.029,10.962-13.244,28.5c-5.758,13.975-9.867,21.375-12.789,27.404
	c-1.004,2.01-2.102,2.101-4.111,2.375c-2.74,0.365-3.379,1.096-5.389,1.096c-1.555,0-2.467-0.456-2.467-0.913
	c0-0.548,4.293-1.096,7.398-5.024c3.289-4.11,11.145-14.89,11.145-17.629c0-1.006-7.307-17.906-12.332-29.781
	c-2.283-5.48-2.924-5.937-4.566-5.937c-1.828,0-1.918-0.091-1.918-0.913s0.273-1.28,1.918-1.28c2.557,0,3.197,0.182,5.389,0.182
	c2.557,0,5.754-0.274,8.678-0.274c1.918,0,2.283,0.366,2.283,1.372c0,0.822-0.365,0.913-2.283,0.913c-2.191,0-2.74,0.548-2.74,2.649
	c0,2.649,2.375,5.846,7.855,19.914c0.732,1.918,1.828,3.471,2.193,3.471c0.639,0,1.188-1.279,2.648-5.573
	c2.191-6.576,5.48-16.077,5.48-17.355c0-2.74,0-3.288-3.105-3.288c-2.83,0-3.197,0-3.197-0.914c0-1.189,0.273-1.189,1.918-1.189
	c2.467,0,4.109,0.183,6.578,0.183c1.371,0,3.836-0.365,5.115-0.365c1.461,0,1.918,0.091,1.918,1.097
	C301.16,46.833,299.881,47.29,298.785,47.29"/>
<path fill="#FFFFFF" d="M25.601,105.327c-2.995,0-4.511-1.693-4.511-4.439V92.92h2.121v8.075c0,1.533,0.643,2.531,2.39,2.531
	c1.729,0,2.37-0.998,2.37-2.514V92.92h2.122v7.95C30.093,103.634,28.578,105.327,25.601,105.327"/>
<polygon fill="#FFFFFF" points="40.377,105.132 35.225,96.931 35.19,96.931 35.19,105.132 33.068,105.132 33.068,93.115 
	35.118,92.901 40.092,100.942 40.146,100.942 40.146,92.919 42.267,92.919 42.267,105.132 "/>
<rect x="45.294" y="92.92" fill="#FFFFFF" width="2.121" height="12.212"/>
<path fill="#FFFFFF" d="M56.043,105.132h-2.335l-4.207-12.213h2.245l2.336,6.811c0,0,0.232,0.713,0.82,2.799h0.107
	c0.607-2.086,0.838-2.781,0.838-2.781l2.335-6.828h2.086L56.043,105.132z"/>
<polygon fill="#FFFFFF" points="69.75,105.132 62.334,105.132 62.334,92.901 69.607,92.901 69.607,94.702 64.455,94.702 
	64.455,98.071 69.037,98.071 69.037,99.872 64.455,99.872 64.455,103.331 69.91,103.331 "/>
<path fill="#FFFFFF" d="M76.594,94.737h-1.748v3.727h1.783c1.284,0,1.872-0.748,1.872-1.907
	C78.501,95.415,78.038,94.737,76.594,94.737 M79.125,105.132l-1.693-3.441c-0.357-0.73-0.803-1.443-1.57-1.443h-1.016v4.885h-2.121
	V92.919h3.922c2.692,0,4.029,1.498,4.029,3.619c0,1.461-0.695,2.711-2.3,3.316v0.035c0.393,0.232,0.607,0.553,0.749,0.838
	l2.336,4.404L79.125,105.132L79.125,105.132z"/>
<path fill="#FFFFFF" d="M86.949,105.327c-1.676,0-3.031-0.659-4.028-1.354l0.89-1.569c0.999,0.678,2.193,1.123,3.138,1.123
	c1.408,0,2.104-0.785,2.104-1.693c0-2.282-5.402-1.551-5.402-5.651c0-2.157,1.8-3.458,3.958-3.458c1.283,0,2.514,0.446,3.547,1.087
	l-0.766,1.533c-0.91-0.463-1.73-0.819-2.781-0.819c-1.177,0-1.783,0.659-1.783,1.568c0,2.764,5.402,1.516,5.402,5.669
	C91.228,103.829,89.284,105.327,86.949,105.327"/>
<rect x="93.757" y="92.92" fill="#FFFFFF" width="2.122" height="12.212"/>
<polygon fill="#FFFFFF" points="106.751,94.72 103.667,94.72 103.667,105.131 101.546,105.131 101.546,94.737 98.319,94.737 
	98.319,92.919 106.912,92.919 "/>
<path fill="#FFFFFF" d="M114.272,99.907v5.225h-2.122v-5.225l-3.85-6.988h2.389l1.622,3.478c0,0,0.232,0.444,0.874,1.8h0.053
	c0.606-1.355,0.82-1.8,0.82-1.8l1.729-3.478h2.336L114.272,99.907z"/>
<path fill="#FFFFFF" d="M130.67,94.524c-2.103,0-3.138,1.818-3.138,4.475c0,2.674,1.035,4.527,3.138,4.527
	c2.087,0,3.12-1.854,3.12-4.51C133.79,96.36,132.774,94.524,130.67,94.524 M130.67,105.327c-3.69,0-5.313-2.816-5.313-6.311
	c0-3.673,1.64-6.293,5.313-6.293c3.672,0,5.313,2.62,5.313,6.293C135.983,102.511,134.36,105.327,130.67,105.327"/>
<polygon fill="#FFFFFF" points="140.829,94.702 140.829,98.072 145.322,98.072 145.322,99.872 140.829,99.872 140.829,105.131 
	138.708,105.131 138.708,92.901 145.838,92.901 145.838,94.702 "/>
<path fill="#FFFFFF" d="M159.224,105.327c-3.761,0-5.402-2.549-5.402-6.293c0-3.672,1.801-6.311,5.473-6.311
	c1.515,0,2.781,0.516,4.064,1.569l-1.104,1.425c-0.945-0.784-1.801-1.193-2.96-1.193c-2.157,0-3.298,1.622-3.298,4.492
	c0,2.889,1.069,4.51,3.333,4.51c1.088,0,2.229-0.498,3.227-1.408l1.088,1.391C162.398,104.649,160.865,105.327,159.224,105.327"/>
<path fill="#FFFFFF" d="M171.166,97.981c0,0-0.144-0.391-0.981-2.922h-0.035c-0.82,2.531-0.963,2.922-0.963,2.922l-0.944,2.693
	h3.868L171.166,97.981z M173.662,105.132l-1.016-2.942h-4.92l-1.017,2.942h-1.98l4.297-12.034l2.477-0.196l4.333,12.23H173.662z"/>
<polygon fill="#FFFFFF" points="184.785,105.132 177.564,105.132 177.564,92.919 179.685,92.919 179.685,103.331 184.945,103.331 
	"/>
<rect x="187.011" y="92.92" fill="#FFFFFF" width="2.121" height="12.212"/>
<polygon fill="#FFFFFF" points="194.015,94.702 194.015,98.072 198.507,98.072 198.507,99.872 194.015,99.872 194.015,105.131 
	191.893,105.131 191.893,92.901 199.025,92.901 199.025,94.702 "/>
<path fill="#FFFFFF" d="M205.708,94.524c-2.104,0-3.139,1.818-3.139,4.475c0,2.674,1.034,4.527,3.139,4.527
	c2.086,0,3.119-1.854,3.119-4.51C208.828,96.36,207.812,94.524,205.708,94.524 M205.708,105.327c-3.69,0-5.313-2.816-5.313-6.311
	c0-3.673,1.64-6.293,5.313-6.293c3.672,0,5.312,2.62,5.312,6.293C211.02,102.511,209.398,105.327,205.708,105.327"/>
<path fill="#FFFFFF" d="M216.723,94.737h-1.748v3.727h1.783c1.285,0,1.873-0.748,1.873-1.907
	C218.631,95.415,218.168,94.737,216.723,94.737 M219.254,105.132l-1.693-3.441c-0.355-0.73-0.802-1.443-1.569-1.443h-1.017v4.885
	h-2.121V92.919h3.923c2.692,0,4.028,1.498,4.028,3.619c0,1.461-0.693,2.711-2.299,3.316v0.035c0.393,0.232,0.607,0.553,0.748,0.838
	l2.336,4.404L219.254,105.132L219.254,105.132z"/>
<polygon fill="#FFFFFF" points="230.555,105.132 225.404,96.931 225.367,96.931 225.367,105.132 223.246,105.132 223.246,93.115 
	225.297,92.901 230.27,100.942 230.324,100.942 230.324,92.919 232.445,92.919 232.445,105.132 "/>
<rect x="235.115" y="92.92" fill="#FFFFFF" width="2.121" height="12.212"/>
<path fill="#FFFFFF" d="M245.402,97.981c0,0-0.145-0.391-0.982-2.922h-0.035c-0.82,2.531-0.963,2.922-0.963,2.922l-0.945,2.693
	h3.869L245.402,97.981z M247.896,105.132l-1.016-2.942h-4.92l-1.016,2.942h-1.98l4.297-12.034l2.479-0.196l4.332,12.23H247.896z"/>
</svg>
