<?xml version="1.0" encoding="utf-8"?>
<!-- Generator: Adobe Illustrator 21.0.2, SVG Export Plug-In . SVG Version: 6.00 Build 0)  -->
<svg version="1.1" id="Layer_1" xmlns="http://www.w3.org/2000/svg" xmlns:xlink="http://www.w3.org/1999/xlink" x="0px" y="0px"
	 viewBox="0 0 621 181" style="enable-background:new 0 0 621 181;" xml:space="preserve">
<style type="text/css">
	.st0{fill:#FFFFFF;}
	.st1{fill:#FFFFFF;stroke:#FFFFFF;stroke-width:0.9216;}
</style>
<path class="st0" d="M204.4,173.7h23.7V48h-23.7V173.7L204.4,173.7z M204.4,27.7h23.7V13.8h-23.7V27.7"/>
<path class="st1" d="M204.4,173.7h23.7V48h-23.7V173.7L204.4,173.7z M204.4,27.7h23.7V13.8h-23.7V27.7L204.4,27.7z"/>
<path class="st0" d="M419.5,114.3v-14.1c0-45-28.1-54.6-67-54.6h-34.9c-30.9,0-63.2,5.2-63.2,50.9V124h0c0,46.5,32.4,51.7,60.7,51.7
	h39.4c40.5,0,65-8.7,65-37.6v-2.5h-21.7c-1.3,19.3-12.4,22.7-39.7,22.7h-29.8c-37.9,0-52.1-7.4-52.1-36.1v-7.9H419.5z M321.5,62.3
	h30c33.3,0,42.5,13.7,42.5,27.4v8.9H279.6C281.5,68.1,289.2,62.3,321.5,62.3z"/>
<path class="st0" d="M610.3,114.3v-14.1c0-45-28.1-54.6-67-54.6h-34.9c-30.9,0-63.2,5.2-63.2,50.9V124h0c0,46.5,32.4,51.7,60.7,51.7
	h39.4c40.5,0,65-8.7,65-37.6v-2.5h-21.7c-1.3,19.3-12.4,22.7-39.7,22.7H519c-37.9,0-52.1-7.4-52.1-36.1v-7.9H610.3z M512.3,62.3h30
	c33.3,0,42.5,13.7,42.5,27.4v8.9H470.4C472.3,68.1,479.9,62.3,512.3,62.3z"/>
<path class="st0" d="M20,124.7c0,45.7,34.7,50.9,54.1,50.9h49.1c40.5,0,56.7-12.4,56.7-44.3v-3.7h-20.2v4.2
	c0,20.5-16.9,26.4-37.2,26.4H85.8c-26.3,0-44-6.4-44-34.6V97.3c0-31.4,19.2-34.4,39.7-34.4h40c21.8,0,35.9,4.9,35.9,26v3h20.2v-3.5
	c0-26.7-15.9-42.8-56.4-42.8H84.8C52.9,45.6,20,50.8,20,96.5V124.7"/>
<path class="st1" d="M20,124.7c0,45.7,34.7,50.9,54.1,50.9h49.1c40.5,0,56.7-12.4,56.7-44.3v-3.7h-20.2v4.2
	c0,20.5-16.9,26.4-37.2,26.4H85.8c-26.3,0-44-6.4-44-34.6V97.3c0-31.4,19.2-34.4,39.7-34.4h40c21.8,0,35.9,4.9,35.9,26v3h20.2v-3.5
	c0-26.7-15.9-42.8-56.4-42.8H84.8C52.9,45.6,20,50.8,20,96.5V124.7L20,124.7z"/>
<path class="st0" d="M255.2,21.1c0,1.7,0.3,3.1,0.8,4.1c1,1.8,2.9,2.7,5.8,2.7c2.8,0,4.8-0.9,5.8-2.7c0.5-1,0.8-2.3,0.8-4.1V11h-3.5
	v10.1c0,1.1-0.1,1.9-0.4,2.5c-0.4,0.9-1.3,1.4-2.7,1.4c-1.4,0-2.3-0.5-2.7-1.4c-0.3-0.5-0.4-1.3-0.4-2.5V11h-3.5L255.2,21.1
	L255.2,21.1z M282.5,15c-1,0-1.8,0.2-2.5,0.7c-0.4,0.3-0.7,0.7-1.2,1.4v-1.8h-3v12.2h3.2v-6.6c0-0.8,0.1-1.4,0.3-1.9
	c0.4-0.9,1.1-1.4,2.2-1.4c0.9,0,1.4,0.3,1.7,0.9c0.2,0.3,0.3,0.8,0.3,1.5v7.4h3.3v-8.2c0-1.5-0.4-2.6-1.2-3.3
	C284.7,15.3,283.7,15,282.5,15L282.5,15z M297.2,11H294v2.9h3.2V11L297.2,11z M294,27.5h3.2V15.3H294V27.5L294,27.5z M309.6,24.3
	l-2.5-9h-3.6l4.4,12.2h3.3l4.4-12.2h-3.4L309.6,24.3L309.6,24.3z M326.7,17.6c0.8,0,1.4,0.2,1.9,0.6c0.5,0.4,0.8,1.1,0.9,1.9H324
	c0.1-0.8,0.4-1.4,0.9-1.8C325.3,17.9,325.9,17.6,326.7,17.6L326.7,17.6z M326.7,15c-1.8,0-3.2,0.6-4.3,1.7c-1.1,1.1-1.7,2.7-1.7,4.8
	c0,2.2,0.6,3.9,1.8,4.9c1.2,1,2.7,1.5,4.3,1.5c2,0,3.5-0.6,4.6-1.8c0.7-0.7,1.1-1.5,1.2-2.2h-3.2c-0.2,0.4-0.4,0.6-0.7,0.8
	c-0.5,0.4-1,0.6-1.8,0.6c-0.7,0-1.3-0.2-1.8-0.5c-0.8-0.5-1.2-1.3-1.3-2.6h8.8c0-1,0-1.9-0.1-2.4c-0.1-1-0.5-1.8-1-2.5
	c-0.5-0.8-1.2-1.4-2.1-1.8C328.7,15.2,327.8,15,326.7,15L326.7,15z M345.3,15c-0.9,0-1.7,0.2-2.3,0.7c-0.4,0.3-0.8,0.9-1.3,1.7v-2.1
	h-3v12.2h3.2v-5.8c0-1,0.1-1.7,0.4-2.2c0.4-0.8,1.3-1.3,2.6-1.3c0.1,0,0.2,0,0.4,0c0.2,0,0.3,0,0.5,0V15c-0.1,0-0.2,0-0.3,0
	C345.4,15,345.4,15,345.3,15L345.3,15z M351.2,23.6c0,1.2,0.5,2.3,1.4,3.1c0.9,0.8,2.3,1.2,4.2,1.2c1.9,0,3.3-0.4,4.2-1.1
	c0.9-0.8,1.3-1.7,1.3-2.9c0-0.9-0.3-1.7-0.9-2.3c-0.6-0.6-1.6-1-2.8-1.3c-1.9-0.4-3-0.7-3.3-0.9c-0.3-0.2-0.5-0.4-0.5-0.8
	c0-0.3,0.1-0.5,0.4-0.8c0.3-0.2,0.8-0.3,1.5-0.3c0.9,0,1.5,0.2,1.8,0.7c0.2,0.2,0.3,0.6,0.4,1h3.2c-0.1-1.5-0.7-2.5-1.7-3.1
	c-1-0.6-2.2-0.9-3.7-0.9c-1.6,0-2.9,0.4-3.7,1.2c-0.9,0.8-1.3,1.8-1.3,2.9c0,1,0.3,1.7,0.8,2.2c0.6,0.5,1.5,0.9,2.9,1.3
	c1.9,0.5,3.1,0.8,3.4,1c0.3,0.2,0.4,0.5,0.4,0.8c0,0.4-0.2,0.6-0.6,0.8c-0.4,0.2-0.9,0.3-1.5,0.3c-1.1,0-1.8-0.2-2.2-0.6
	c-0.2-0.2-0.4-0.6-0.4-1.2L351.2,23.6L351.2,23.6z M372.1,11H369v2.9h3.2V11L372.1,11z M369,27.5h3.2V15.3H369V27.5L369,27.5z
	 M380.1,17.7v7.5c0,0.8,0.2,1.3,0.5,1.7c0.6,0.6,1.6,0.8,3.1,0.8l1.5-0.1v-2.4c-0.1,0-0.2,0-0.3,0c-0.1,0-0.2,0-0.3,0
	c-0.6,0-1-0.1-1.2-0.2c-0.1-0.1-0.2-0.4-0.2-0.9v-6.4h2v-2.3h-2V12h-3.2v3.4h-1.7v2.3L380.1,17.7L380.1,17.7z M391.9,32.3
	c0.3,0,0.6,0,0.8,0c0.2,0,0.4,0,0.7,0c1.4,0,2.4-0.3,2.8-0.8c0.5-0.6,1.1-2,1.9-4.3l4.2-12h-3.4l-2.5,9l-2.6-9h-3.5l4.5,12.7
	c0,0.1-0.1,0.3-0.2,0.7c-0.2,0.4-0.3,0.7-0.5,0.8c-0.2,0.1-0.4,0.2-0.7,0.3c-0.3,0-0.6,0-0.9,0l-0.4,0L391.9,32.3L391.9,32.3z
	 M424.7,25.2c-0.9,0-1.7-0.3-2.2-1c-0.5-0.7-0.8-1.6-0.8-2.8c0-1.2,0.3-2.2,0.8-2.8s1.2-1,2.2-1s1.7,0.3,2.2,1
	c0.5,0.7,0.8,1.6,0.8,2.8c0,1.2-0.2,2.2-0.8,2.8C426.3,24.9,425.6,25.2,424.7,25.2L424.7,25.2z M430.9,21.4c0-1.7-0.5-3.3-1.5-4.5
	c-1-1.3-2.6-1.9-4.7-1.9c-2.1,0-3.6,0.6-4.7,1.9c-1,1.3-1.5,2.8-1.5,4.5c0,1.8,0.5,3.3,1.5,4.6c1,1.3,2.6,1.9,4.7,1.9
	c2.1,0,3.6-0.6,4.7-1.9C430.4,24.7,430.9,23.2,430.9,21.4L430.9,21.4z M441.9,10.9c-1.8,0-2.9,0.4-3.3,1.1c-0.4,0.5-0.6,1.4-0.6,2.7
	v0.8h-1.7v2.3h1.7v9.8h3.1v-9.8h2.1v-2.3h-2.1c0-0.4,0-0.8,0-1c0-0.2,0.1-0.5,0.2-0.7c0.2-0.2,0.5-0.3,0.9-0.3c0.4,0,0.7,0,0.9,0
	v-2.6c-0.3,0-0.5,0-0.7,0C442.3,10.9,442.1,10.9,441.9,10.9L441.9,10.9z M459.6,19.4c0,2.7,0.7,4.7,2,6.3c1.3,1.5,3.2,2.3,5.5,2.3
	c1.9,0,3.4-0.6,4.6-1.7c1.2-1.1,2-2.6,2.2-4.4h-3.4c-0.2,0.9-0.5,1.5-0.8,1.9c-0.6,0.8-1.5,1.2-2.7,1.2c-1.1,0-2.1-0.5-2.8-1.4
	c-0.7-0.9-1.1-2.3-1.1-4.1c0-1.8,0.4-3.3,1.1-4.3c0.7-1,1.7-1.5,2.9-1.5c1.2,0,2.1,0.4,2.7,1.1c0.3,0.4,0.6,1,0.8,1.8h3.4
	c0-1-0.4-2-1.1-3.1c-1.3-1.8-3.3-2.7-6-2.7c-2,0-3.7,0.7-5,2C460.4,14.3,459.6,16.5,459.6,19.4L459.6,19.4z M487.6,22.7
	c0,1.1-0.3,1.8-0.9,2.2c-0.6,0.4-1.2,0.6-1.9,0.6c-0.4,0-0.8-0.1-1.1-0.4c-0.3-0.2-0.5-0.6-0.5-1.2c0-0.6,0.2-1.1,0.7-1.4
	c0.3-0.2,0.8-0.3,1.5-0.4l0.7-0.1c0.4-0.1,0.6-0.1,0.8-0.2c0.2-0.1,0.4-0.2,0.6-0.3L487.6,22.7L487.6,22.7z M484.6,20.2
	c-1.2,0.2-2.2,0.4-2.8,0.8c-1.2,0.7-1.7,1.8-1.7,3.3c0,1.2,0.4,2.1,1.1,2.7c0.7,0.6,1.6,0.9,2.7,0.9c0.9,0,1.6-0.2,2.3-0.6
	c0.6-0.3,1.1-0.7,1.5-1.2c0,0.3,0,0.5,0.1,0.7c0,0.2,0.1,0.4,0.2,0.7h3.5V27c-0.2-0.1-0.4-0.2-0.5-0.4c-0.1-0.1-0.2-0.4-0.2-0.8
	c0-0.6,0-1,0-1.4v-5.6c0-1.5-0.5-2.5-1.5-3c-1-0.5-2.2-0.8-3.5-0.8c-2,0-3.5,0.5-4.3,1.6c-0.5,0.7-0.8,1.5-0.9,2.6h3
	c0.1-0.5,0.2-0.8,0.4-1.1c0.3-0.4,0.9-0.6,1.6-0.6c0.7,0,1.2,0.1,1.5,0.3c0.3,0.2,0.5,0.5,0.5,1c0,0.4-0.2,0.7-0.7,0.9
	c-0.3,0.1-0.7,0.2-1.3,0.3L484.6,20.2L484.6,20.2z M501.1,11.1h-3.2v16.4h3.2V11.1L501.1,11.1z M511.8,11h-3.2v2.9h3.2V11L511.8,11z
	 M508.6,27.5h3.2V15.3h-3.2V27.5L508.6,27.5z M523.7,10.9c-1.8,0-2.9,0.4-3.3,1.1c-0.4,0.5-0.7,1.4-0.7,2.7v0.8H518v2.3h1.7v9.8h3.1
	v-9.8h2.1v-2.3h-2.1c0-0.4,0-0.8,0-1c0-0.2,0.1-0.5,0.2-0.7c0.2-0.2,0.5-0.3,0.9-0.3c0.4,0,0.7,0,0.9,0v-2.6c-0.3,0-0.5,0-0.7,0
	C524,10.9,523.9,10.9,523.7,10.9L523.7,10.9z M536.6,25.2c-0.9,0-1.7-0.3-2.2-1c-0.5-0.7-0.8-1.6-0.8-2.8c0-1.2,0.3-2.2,0.8-2.8
	c0.5-0.7,1.2-1,2.2-1c0.9,0,1.6,0.3,2.2,1c0.5,0.7,0.7,1.6,0.7,2.8c0,1.2-0.2,2.2-0.7,2.8C538.3,24.9,537.6,25.2,536.6,25.2
	L536.6,25.2z M542.8,21.4c0-1.7-0.5-3.3-1.5-4.5c-1-1.3-2.6-1.9-4.7-1.9c-2.1,0-3.6,0.6-4.7,1.9c-1,1.3-1.5,2.8-1.5,4.5
	c0,1.8,0.5,3.3,1.5,4.6c1,1.3,2.6,1.9,4.7,1.9c2.1,0,3.6-0.6,4.7-1.9C542.3,24.7,542.8,23.2,542.8,21.4L542.8,21.4z M556,15
	c-0.9,0-1.7,0.2-2.3,0.7c-0.4,0.3-0.8,0.9-1.3,1.7v-2.1h-3v12.2h3.2v-5.8c0-1,0.1-1.7,0.4-2.2c0.4-0.8,1.3-1.3,2.6-1.3
	c0.1,0,0.2,0,0.4,0c0.2,0,0.3,0,0.5,0V15c-0.1,0-0.2,0-0.3,0C556.1,15,556.1,15,556,15L556,15z M569.3,15c-1,0-1.8,0.2-2.5,0.7
	c-0.4,0.3-0.7,0.7-1.2,1.4v-1.8h-3v12.2h3.2v-6.6c0-0.8,0.1-1.4,0.3-1.9c0.4-0.9,1.1-1.4,2.2-1.4c0.9,0,1.4,0.3,1.7,0.9
	c0.2,0.3,0.2,0.8,0.2,1.5v7.4h3.3v-8.2c0-1.5-0.4-2.6-1.2-3.3C571.6,15.3,570.6,15,569.3,15L569.3,15z M584.1,11h-3.2v2.9h3.2V11
	L584.1,11z M580.9,27.5h3.2V15.3h-3.2V27.5L580.9,27.5z M598.3,22.7c0,1.1-0.3,1.8-0.9,2.2c-0.6,0.4-1.2,0.6-1.9,0.6
	c-0.4,0-0.8-0.1-1.1-0.4c-0.3-0.2-0.5-0.6-0.5-1.2c0-0.6,0.2-1.1,0.7-1.4c0.3-0.2,0.8-0.3,1.5-0.4l0.7-0.1c0.4-0.1,0.6-0.1,0.8-0.2
	c0.2-0.1,0.4-0.2,0.6-0.3V22.7L598.3,22.7z M595.3,20.2c-1.2,0.2-2.2,0.4-2.8,0.8c-1.2,0.7-1.7,1.8-1.7,3.3c0,1.2,0.4,2.1,1.1,2.7
	c0.7,0.6,1.6,0.9,2.7,0.9c0.9,0,1.6-0.2,2.3-0.6c0.6-0.3,1.1-0.7,1.5-1.2c0,0.3,0,0.5,0.1,0.7c0,0.2,0.1,0.4,0.2,0.7h3.5V27
	c-0.2-0.1-0.4-0.2-0.5-0.4c-0.1-0.1-0.2-0.4-0.2-0.8c0-0.6,0-1,0-1.4v-5.6c0-1.5-0.5-2.5-1.5-3c-1-0.5-2.2-0.8-3.5-0.8
	c-2,0-3.5,0.5-4.3,1.6c-0.5,0.7-0.8,1.5-0.9,2.6h3c0.1-0.5,0.2-0.8,0.4-1.1c0.3-0.4,0.9-0.6,1.6-0.6c0.7,0,1.2,0.1,1.5,0.3
	c0.3,0.2,0.5,0.5,0.5,1c0,0.4-0.2,0.7-0.7,0.9c-0.3,0.1-0.7,0.2-1.3,0.3L595.3,20.2"/>
</svg>
